<mxfile host="Electron" agent="Mozilla/5.0 (X11; Linux x86_64) AppleWebKit/537.36 (KHTML, like Gecko) draw.io/24.7.17 Chrome/128.0.6613.36 Electron/32.0.1 Safari/537.36" version="24.7.17">
  <diagram name="Page-1" id="t6zMYlOsBYNeVqlMP43y">
    <mxGraphModel dx="1185" dy="703" grid="1" gridSize="10" guides="1" tooltips="1" connect="1" arrows="1" fold="1" page="1" pageScale="1" pageWidth="1169" pageHeight="827" math="0" shadow="0">
      <root>
        <mxCell id="0" />
        <mxCell id="1" parent="0" />
        <mxCell id="Qy2okHtq2op7KmMTomPE-69" value="" style="rounded=1;whiteSpace=wrap;html=1;fillColor=none;dashed=1;arcSize=8;" parent="1" vertex="1">
          <mxGeometry x="280" y="20" width="760" height="770" as="geometry" />
        </mxCell>
        <mxCell id="Qy2okHtq2op7KmMTomPE-28" value="" style="group" parent="1" vertex="1" connectable="0">
          <mxGeometry x="460" y="120" width="200" height="200" as="geometry" />
        </mxCell>
        <mxCell id="Qy2okHtq2op7KmMTomPE-1" value="" style="rounded=1;whiteSpace=wrap;html=1;fillColor=#f9f7ed;strokeColor=#36393d;opacity=50;" parent="Qy2okHtq2op7KmMTomPE-28" vertex="1">
          <mxGeometry y="20" width="200" height="180" as="geometry" />
        </mxCell>
        <mxCell id="Qy2okHtq2op7KmMTomPE-2" value="State Machine" style="text;html=1;align=center;verticalAlign=middle;whiteSpace=wrap;rounded=0;" parent="Qy2okHtq2op7KmMTomPE-28" vertex="1">
          <mxGeometry x="55" width="90" height="20" as="geometry" />
        </mxCell>
        <mxCell id="Qy2okHtq2op7KmMTomPE-3" value="reset_in" style="text;html=1;align=center;verticalAlign=middle;whiteSpace=wrap;rounded=0;" parent="Qy2okHtq2op7KmMTomPE-28" vertex="1">
          <mxGeometry y="40" width="50" height="20" as="geometry" />
        </mxCell>
        <mxCell id="Qy2okHtq2op7KmMTomPE-4" value="" style="triangle;whiteSpace=wrap;html=1;rotation=0;" parent="Qy2okHtq2op7KmMTomPE-28" vertex="1">
          <mxGeometry y="70" width="7.5" height="20" as="geometry" />
        </mxCell>
        <mxCell id="Qy2okHtq2op7KmMTomPE-21" value="clk_in" style="text;html=1;align=center;verticalAlign=middle;whiteSpace=wrap;rounded=0;" parent="Qy2okHtq2op7KmMTomPE-28" vertex="1">
          <mxGeometry x="10" y="70" width="40" height="20" as="geometry" />
        </mxCell>
        <mxCell id="Qy2okHtq2op7KmMTomPE-22" value="state_r" style="text;html=1;align=center;verticalAlign=middle;whiteSpace=wrap;rounded=0;" parent="Qy2okHtq2op7KmMTomPE-28" vertex="1">
          <mxGeometry x="150" y="70" width="50" height="20" as="geometry" />
        </mxCell>
        <mxCell id="Qy2okHtq2op7KmMTomPE-23" value="deactivate_cs_in" style="text;html=1;align=center;verticalAlign=middle;whiteSpace=wrap;rounded=0;" parent="Qy2okHtq2op7KmMTomPE-28" vertex="1">
          <mxGeometry y="110" width="100" height="20" as="geometry" />
        </mxCell>
        <mxCell id="Qy2okHtq2op7KmMTomPE-25" value="chip_select_r" style="text;html=1;align=center;verticalAlign=middle;whiteSpace=wrap;rounded=0;" parent="Qy2okHtq2op7KmMTomPE-28" vertex="1">
          <mxGeometry x="120" y="130" width="80" height="20" as="geometry" />
        </mxCell>
        <mxCell id="Qy2okHtq2op7KmMTomPE-26" value="shift_reg_ready" style="text;html=1;align=center;verticalAlign=middle;whiteSpace=wrap;rounded=0;" parent="Qy2okHtq2op7KmMTomPE-28" vertex="1">
          <mxGeometry y="160" width="90" height="20" as="geometry" />
        </mxCell>
        <mxCell id="Qy2okHtq2op7KmMTomPE-27" value="tx_start_in" style="text;html=1;align=center;verticalAlign=middle;whiteSpace=wrap;rounded=0;" parent="Qy2okHtq2op7KmMTomPE-28" vertex="1">
          <mxGeometry y="130" width="70" height="20" as="geometry" />
        </mxCell>
        <mxCell id="Qy2okHtq2op7KmMTomPE-29" value="reset_in" style="text;html=1;align=center;verticalAlign=middle;whiteSpace=wrap;rounded=0;fontStyle=1" parent="1" vertex="1">
          <mxGeometry x="160" y="150" width="50" height="20" as="geometry" />
        </mxCell>
        <mxCell id="Qy2okHtq2op7KmMTomPE-30" value="clk_in" style="text;html=1;align=center;verticalAlign=middle;whiteSpace=wrap;rounded=0;fontStyle=1" parent="1" vertex="1">
          <mxGeometry x="160" y="180" width="35" height="20" as="geometry" />
        </mxCell>
        <mxCell id="Qy2okHtq2op7KmMTomPE-31" value="" style="endArrow=classic;html=1;rounded=0;exitX=0;exitY=1;exitDx=0;exitDy=0;" parent="1" source="Qy2okHtq2op7KmMTomPE-29" edge="1">
          <mxGeometry width="50" height="50" relative="1" as="geometry">
            <mxPoint x="560" y="360" as="sourcePoint" />
            <mxPoint x="460" y="170" as="targetPoint" />
          </mxGeometry>
        </mxCell>
        <mxCell id="Qy2okHtq2op7KmMTomPE-32" value="" style="endArrow=classic;html=1;rounded=0;exitX=0;exitY=1;exitDx=0;exitDy=0;" parent="1" edge="1">
          <mxGeometry width="50" height="50" relative="1" as="geometry">
            <mxPoint x="160" y="200" as="sourcePoint" />
            <mxPoint x="460" y="200" as="targetPoint" />
          </mxGeometry>
        </mxCell>
        <mxCell id="Qy2okHtq2op7KmMTomPE-33" value="" style="endArrow=classic;html=1;rounded=0;entryX=0;entryY=0.5;entryDx=0;entryDy=0;" parent="1" target="l8n6ygS0LWKq-va1mBTF-14" edge="1">
          <mxGeometry width="50" height="50" relative="1" as="geometry">
            <mxPoint x="340" y="200" as="sourcePoint" />
            <mxPoint x="180" y="400" as="targetPoint" />
            <Array as="points">
              <mxPoint x="340" y="461" />
            </Array>
          </mxGeometry>
        </mxCell>
        <mxCell id="Qy2okHtq2op7KmMTomPE-34" value="" style="endArrow=classic;html=1;rounded=0;entryX=0;entryY=0.5;entryDx=0;entryDy=0;" parent="1" target="l8n6ygS0LWKq-va1mBTF-2" edge="1">
          <mxGeometry width="50" height="50" relative="1" as="geometry">
            <mxPoint x="380" y="170" as="sourcePoint" />
            <mxPoint x="610" y="310" as="targetPoint" />
            <Array as="points">
              <mxPoint x="380" y="430" />
            </Array>
          </mxGeometry>
        </mxCell>
        <mxCell id="Qy2okHtq2op7KmMTomPE-36" value="tx_start_in" style="text;html=1;align=center;verticalAlign=middle;whiteSpace=wrap;rounded=0;fontStyle=1" parent="1" vertex="1">
          <mxGeometry x="160" y="240" width="70" height="20" as="geometry" />
        </mxCell>
        <mxCell id="Qy2okHtq2op7KmMTomPE-37" value="" style="endArrow=classic;html=1;rounded=0;entryX=-0.012;entryY=0.167;entryDx=0;entryDy=0;entryPerimeter=0;" parent="1" edge="1">
          <mxGeometry width="50" height="50" relative="1" as="geometry">
            <mxPoint x="160" y="260" as="sourcePoint" />
            <mxPoint x="460" y="260" as="targetPoint" />
          </mxGeometry>
        </mxCell>
        <mxCell id="Qy2okHtq2op7KmMTomPE-38" value="deactivate_cs_in" style="text;html=1;align=center;verticalAlign=middle;whiteSpace=wrap;rounded=0;fontStyle=1" parent="1" vertex="1">
          <mxGeometry x="160" y="220" width="100" height="20" as="geometry" />
        </mxCell>
        <mxCell id="Qy2okHtq2op7KmMTomPE-39" value="" style="endArrow=classic;html=1;rounded=0;entryX=-0.012;entryY=0.167;entryDx=0;entryDy=0;entryPerimeter=0;" parent="1" edge="1">
          <mxGeometry width="50" height="50" relative="1" as="geometry">
            <mxPoint x="160" y="240" as="sourcePoint" />
            <mxPoint x="460" y="240" as="targetPoint" />
          </mxGeometry>
        </mxCell>
        <mxCell id="Qy2okHtq2op7KmMTomPE-40" value="" style="shape=flexArrow;endArrow=classic;html=1;rounded=0;entryX=0;entryY=0.5;entryDx=0;entryDy=0;" parent="1" target="l8n6ygS0LWKq-va1mBTF-5" edge="1">
          <mxGeometry width="50" height="50" relative="1" as="geometry">
            <mxPoint x="160" y="540" as="sourcePoint" />
            <mxPoint x="610" y="310" as="targetPoint" />
          </mxGeometry>
        </mxCell>
        <mxCell id="Qy2okHtq2op7KmMTomPE-41" value="" style="shape=flexArrow;endArrow=classic;html=1;rounded=0;" parent="1" edge="1">
          <mxGeometry width="50" height="50" relative="1" as="geometry">
            <mxPoint x="660" y="540" as="sourcePoint" />
            <mxPoint x="160" y="700" as="targetPoint" />
            <Array as="points">
              <mxPoint x="690" y="540" />
              <mxPoint x="690" y="700" />
              <mxPoint x="420" y="700" />
            </Array>
          </mxGeometry>
        </mxCell>
        <mxCell id="Qy2okHtq2op7KmMTomPE-42" value="tx_done_out" style="text;html=1;align=center;verticalAlign=middle;whiteSpace=wrap;rounded=0;fontStyle=1" parent="1" vertex="1">
          <mxGeometry x="160" y="720" width="80" height="30" as="geometry" />
        </mxCell>
        <mxCell id="Qy2okHtq2op7KmMTomPE-43" value="select_out" style="text;html=1;align=center;verticalAlign=middle;whiteSpace=wrap;rounded=0;fontStyle=1" parent="1" vertex="1">
          <mxGeometry x="1050" y="620" width="60" height="20" as="geometry" />
        </mxCell>
        <mxCell id="Qy2okHtq2op7KmMTomPE-44" value="sck_out" style="text;html=1;align=center;verticalAlign=middle;whiteSpace=wrap;rounded=0;fontStyle=1" parent="1" vertex="1">
          <mxGeometry x="1060" y="560" width="50" height="20" as="geometry" />
        </mxCell>
        <mxCell id="Qy2okHtq2op7KmMTomPE-45" value="miso_in" style="text;html=1;align=center;verticalAlign=middle;whiteSpace=wrap;rounded=0;fontStyle=1" parent="1" vertex="1">
          <mxGeometry x="1060" y="650" width="50" height="20" as="geometry" />
        </mxCell>
        <mxCell id="Qy2okHtq2op7KmMTomPE-46" value="mosi_out" style="text;html=1;align=center;verticalAlign=middle;whiteSpace=wrap;rounded=0;fontStyle=1" parent="1" vertex="1">
          <mxGeometry x="1050" y="590" width="60" height="20" as="geometry" />
        </mxCell>
        <mxCell id="Qy2okHtq2op7KmMTomPE-47" value="" style="endArrow=classic;html=1;rounded=0;entryX=-0.05;entryY=0.5;entryDx=0;entryDy=0;entryPerimeter=0;exitX=1;exitY=1;exitDx=0;exitDy=0;" parent="1" source="Qy2okHtq2op7KmMTomPE-45" target="l8n6ygS0LWKq-va1mBTF-7" edge="1">
          <mxGeometry width="50" height="50" relative="1" as="geometry">
            <mxPoint x="960" y="670" as="sourcePoint" />
            <mxPoint x="460" y="590" as="targetPoint" />
            <Array as="points">
              <mxPoint x="420" y="670" />
              <mxPoint x="420" y="610" />
            </Array>
          </mxGeometry>
        </mxCell>
        <mxCell id="Qy2okHtq2op7KmMTomPE-48" value="&lt;font size=&quot;1&quot; style=&quot;&quot;&gt;&lt;b style=&quot;font-size: 20px;&quot;&gt;==&lt;/b&gt;&lt;/font&gt;" style="ellipse;whiteSpace=wrap;html=1;aspect=fixed;fillColor=#d5e8d4;strokeColor=#82b366;" parent="1" vertex="1">
          <mxGeometry x="835" y="170" width="60" height="60" as="geometry" />
        </mxCell>
        <mxCell id="Qy2okHtq2op7KmMTomPE-49" value="" style="endArrow=classic;html=1;rounded=0;exitX=0.5;exitY=1;exitDx=0;exitDy=0;entryX=0;entryY=0.5;entryDx=0;entryDy=0;" parent="1" source="Qy2okHtq2op7KmMTomPE-48" target="l8n6ygS0LWKq-va1mBTF-4" edge="1">
          <mxGeometry width="50" height="50" relative="1" as="geometry">
            <mxPoint x="475" y="220" as="sourcePoint" />
            <mxPoint x="865" y="210" as="targetPoint" />
            <Array as="points">
              <mxPoint x="865" y="370" />
              <mxPoint x="300" y="370" />
              <mxPoint x="300" y="509" />
            </Array>
          </mxGeometry>
        </mxCell>
        <mxCell id="Qy2okHtq2op7KmMTomPE-50" value="" style="shape=flexArrow;endArrow=classic;html=1;rounded=0;" parent="1" edge="1">
          <mxGeometry width="50" height="50" relative="1" as="geometry">
            <mxPoint x="864.6599999999999" y="130" as="sourcePoint" />
            <mxPoint x="864.6599999999999" y="170" as="targetPoint" />
          </mxGeometry>
        </mxCell>
        <mxCell id="Qy2okHtq2op7KmMTomPE-51" value="S_TRIGGER" style="text;html=1;align=center;verticalAlign=middle;whiteSpace=wrap;rounded=0;fontStyle=1;fontSize=14;" parent="1" vertex="1">
          <mxGeometry x="820" y="110" width="90" height="20" as="geometry" />
        </mxCell>
        <mxCell id="Qy2okHtq2op7KmMTomPE-53" value="" style="shape=flexArrow;endArrow=classic;html=1;rounded=0;exitX=1;exitY=0.5;exitDx=0;exitDy=0;entryX=0;entryY=0.5;entryDx=0;entryDy=0;" parent="1" source="Qy2okHtq2op7KmMTomPE-22" target="Qy2okHtq2op7KmMTomPE-59" edge="1">
          <mxGeometry width="50" height="50" relative="1" as="geometry">
            <mxPoint x="560" y="360" as="sourcePoint" />
            <mxPoint x="800" y="200" as="targetPoint" />
            <Array as="points">
              <mxPoint x="780" y="200" />
              <mxPoint x="780" y="280" />
            </Array>
          </mxGeometry>
        </mxCell>
        <mxCell id="Qy2okHtq2op7KmMTomPE-54" value="data_in" style="text;html=1;align=center;verticalAlign=middle;whiteSpace=wrap;rounded=0;fontStyle=1" parent="1" vertex="1">
          <mxGeometry x="160" y="510" width="50" height="30" as="geometry" />
        </mxCell>
        <mxCell id="Qy2okHtq2op7KmMTomPE-55" value="data_out" style="text;html=1;align=center;verticalAlign=middle;whiteSpace=wrap;rounded=0;fontStyle=1" parent="1" vertex="1">
          <mxGeometry x="160" y="660" width="60" height="30" as="geometry" />
        </mxCell>
        <mxCell id="Qy2okHtq2op7KmMTomPE-56" value="" style="endArrow=classic;html=1;rounded=0;exitX=1;exitY=0.5;exitDx=0;exitDy=0;entryX=1;entryY=1;entryDx=0;entryDy=0;" parent="1" source="l8n6ygS0LWKq-va1mBTF-9" target="Qy2okHtq2op7KmMTomPE-44" edge="1">
          <mxGeometry width="50" height="50" relative="1" as="geometry">
            <mxPoint x="660" y="589.33" as="sourcePoint" />
            <mxPoint x="960" y="580" as="targetPoint" />
          </mxGeometry>
        </mxCell>
        <mxCell id="Qy2okHtq2op7KmMTomPE-57" value="" style="endArrow=classic;html=1;rounded=0;exitX=1;exitY=0.5;exitDx=0;exitDy=0;entryX=1;entryY=1;entryDx=0;entryDy=0;" parent="1" source="l8n6ygS0LWKq-va1mBTF-8" target="Qy2okHtq2op7KmMTomPE-46" edge="1">
          <mxGeometry width="50" height="50" relative="1" as="geometry">
            <mxPoint x="660" y="590" as="sourcePoint" />
            <mxPoint x="960" y="610" as="targetPoint" />
          </mxGeometry>
        </mxCell>
        <mxCell id="Qy2okHtq2op7KmMTomPE-58" value="" style="endArrow=classic;html=1;rounded=0;exitX=1;exitY=0.5;exitDx=0;exitDy=0;entryX=1;entryY=1;entryDx=0;entryDy=0;" parent="1" source="Qy2okHtq2op7KmMTomPE-25" target="Qy2okHtq2op7KmMTomPE-43" edge="1">
          <mxGeometry width="50" height="50" relative="1" as="geometry">
            <mxPoint x="660" y="609.67" as="sourcePoint" />
            <mxPoint x="960" y="640" as="targetPoint" />
            <Array as="points">
              <mxPoint x="740" y="260" />
              <mxPoint x="740" y="640" />
            </Array>
          </mxGeometry>
        </mxCell>
        <mxCell id="l8n6ygS0LWKq-va1mBTF-16" value="" style="group" parent="1" vertex="1" connectable="0">
          <mxGeometry x="460" y="400" width="200" height="240" as="geometry" />
        </mxCell>
        <mxCell id="l8n6ygS0LWKq-va1mBTF-1" value="" style="rounded=1;whiteSpace=wrap;html=1;fillColor=#f9f7ed;strokeColor=#36393d;opacity=50;" parent="l8n6ygS0LWKq-va1mBTF-16" vertex="1">
          <mxGeometry width="200" height="239.99999999999997" as="geometry" />
        </mxCell>
        <mxCell id="l8n6ygS0LWKq-va1mBTF-2" value="reset_in" style="text;html=1;align=center;verticalAlign=middle;whiteSpace=wrap;rounded=0;" parent="l8n6ygS0LWKq-va1mBTF-16" vertex="1">
          <mxGeometry y="20" width="50" height="20" as="geometry" />
        </mxCell>
        <mxCell id="l8n6ygS0LWKq-va1mBTF-3" value="clk_in" style="text;html=1;align=center;verticalAlign=middle;whiteSpace=wrap;rounded=0;" parent="l8n6ygS0LWKq-va1mBTF-16" vertex="1">
          <mxGeometry x="7.5" y="49.99545454545454" width="40" height="21.818181818181817" as="geometry" />
        </mxCell>
        <mxCell id="l8n6ygS0LWKq-va1mBTF-4" value="start_in" style="text;html=1;align=center;verticalAlign=middle;whiteSpace=wrap;rounded=0;" parent="l8n6ygS0LWKq-va1mBTF-16" vertex="1">
          <mxGeometry y="98.18181818181817" width="50" height="21.818181818181817" as="geometry" />
        </mxCell>
        <mxCell id="l8n6ygS0LWKq-va1mBTF-5" value="data_in" style="text;html=1;align=center;verticalAlign=middle;whiteSpace=wrap;rounded=0;" parent="l8n6ygS0LWKq-va1mBTF-16" vertex="1">
          <mxGeometry y="130.91" width="47.5" height="19.09" as="geometry" />
        </mxCell>
        <mxCell id="l8n6ygS0LWKq-va1mBTF-6" value="data_out" style="text;html=1;align=center;verticalAlign=middle;whiteSpace=wrap;rounded=0;" parent="l8n6ygS0LWKq-va1mBTF-16" vertex="1">
          <mxGeometry x="140" y="130" width="60" height="20" as="geometry" />
        </mxCell>
        <mxCell id="l8n6ygS0LWKq-va1mBTF-7" value="serial_in" style="text;html=1;align=center;verticalAlign=middle;whiteSpace=wrap;rounded=0;" parent="l8n6ygS0LWKq-va1mBTF-16" vertex="1">
          <mxGeometry y="200" width="60" height="20" as="geometry" />
        </mxCell>
        <mxCell id="l8n6ygS0LWKq-va1mBTF-9" value="clk_out" style="text;html=1;align=center;verticalAlign=middle;whiteSpace=wrap;rounded=0;" parent="l8n6ygS0LWKq-va1mBTF-16" vertex="1">
          <mxGeometry x="150" y="170" width="50" height="20" as="geometry" />
        </mxCell>
        <mxCell id="l8n6ygS0LWKq-va1mBTF-10" value="ready_out" style="text;html=1;align=center;verticalAlign=middle;whiteSpace=wrap;rounded=0;" parent="l8n6ygS0LWKq-va1mBTF-16" vertex="1">
          <mxGeometry x="130" y="98.18181818181817" width="70" height="21.818181818181817" as="geometry" />
        </mxCell>
        <mxCell id="l8n6ygS0LWKq-va1mBTF-12" value="" style="endArrow=none;dashed=1;html=1;dashPattern=1 3;strokeWidth=2;rounded=0;" parent="l8n6ygS0LWKq-va1mBTF-16" edge="1">
          <mxGeometry width="50" height="50" relative="1" as="geometry">
            <mxPoint y="163.63636363636363" as="sourcePoint" />
            <mxPoint x="199" y="163.63636363636363" as="targetPoint" />
          </mxGeometry>
        </mxCell>
        <mxCell id="l8n6ygS0LWKq-va1mBTF-14" value="" style="triangle;whiteSpace=wrap;html=1;rotation=0;" parent="l8n6ygS0LWKq-va1mBTF-16" vertex="1">
          <mxGeometry y="49.99545454545454" width="7.5" height="21.818181818181817" as="geometry" />
        </mxCell>
        <mxCell id="l8n6ygS0LWKq-va1mBTF-15" value="" style="endArrow=none;dashed=1;html=1;dashPattern=1 3;strokeWidth=2;rounded=0;entryX=0.995;entryY=0.693;entryDx=0;entryDy=0;entryPerimeter=0;" parent="l8n6ygS0LWKq-va1mBTF-16" edge="1">
          <mxGeometry width="50" height="50" relative="1" as="geometry">
            <mxPoint x="1" y="88.36363636363636" as="sourcePoint" />
            <mxPoint x="200" y="87.27272727272727" as="targetPoint" />
          </mxGeometry>
        </mxCell>
        <mxCell id="l8n6ygS0LWKq-va1mBTF-8" value="serial_out" style="text;html=1;align=center;verticalAlign=middle;whiteSpace=wrap;rounded=0;" parent="l8n6ygS0LWKq-va1mBTF-16" vertex="1">
          <mxGeometry x="130" y="200" width="70" height="20" as="geometry" />
        </mxCell>
        <mxCell id="l8n6ygS0LWKq-va1mBTF-17" value="Shift Register" style="text;html=1;align=center;verticalAlign=middle;whiteSpace=wrap;rounded=0;" parent="1" vertex="1">
          <mxGeometry x="505" y="380" width="110" height="20" as="geometry" />
        </mxCell>
        <mxCell id="Qy2okHtq2op7KmMTomPE-59" value="&lt;font size=&quot;1&quot; style=&quot;&quot;&gt;&lt;b style=&quot;font-size: 20px;&quot;&gt;==&lt;/b&gt;&lt;/font&gt;" style="ellipse;whiteSpace=wrap;html=1;aspect=fixed;fillColor=#d5e8d4;strokeColor=#82b366;" parent="1" vertex="1">
          <mxGeometry x="915" y="250" width="60" height="60" as="geometry" />
        </mxCell>
        <mxCell id="Qy2okHtq2op7KmMTomPE-60" value="" style="endArrow=classic;html=1;rounded=0;exitX=0.5;exitY=1;exitDx=0;exitDy=0;" parent="1" source="Qy2okHtq2op7KmMTomPE-59" edge="1">
          <mxGeometry width="50" height="50" relative="1" as="geometry">
            <mxPoint x="555" y="300" as="sourcePoint" />
            <mxPoint x="945" y="380" as="targetPoint" />
          </mxGeometry>
        </mxCell>
        <mxCell id="Qy2okHtq2op7KmMTomPE-61" value="" style="shape=flexArrow;endArrow=classic;html=1;rounded=0;" parent="1" edge="1">
          <mxGeometry width="50" height="50" relative="1" as="geometry">
            <mxPoint x="944.6599999999999" y="210" as="sourcePoint" />
            <mxPoint x="944.6599999999999" y="250" as="targetPoint" />
          </mxGeometry>
        </mxCell>
        <mxCell id="Qy2okHtq2op7KmMTomPE-62" value="S_IDLE" style="text;html=1;align=center;verticalAlign=middle;whiteSpace=wrap;rounded=0;fontStyle=1;fontSize=14;" parent="1" vertex="1">
          <mxGeometry x="900" y="190" width="90" height="20" as="geometry" />
        </mxCell>
        <mxCell id="Qy2okHtq2op7KmMTomPE-63" value="!" style="rounded=0;whiteSpace=wrap;html=1;fontStyle=1;fontSize=16;fillColor=#f8cecc;strokeColor=#b85450;container=0;" parent="1" vertex="1">
          <mxGeometry x="540" y="40" width="40" height="40" as="geometry" />
        </mxCell>
        <mxCell id="Qy2okHtq2op7KmMTomPE-64" value="&amp;amp;" style="rounded=0;whiteSpace=wrap;html=1;fontStyle=1;fontSize=16;fillColor=#f8cecc;strokeColor=#b85450;container=0;" parent="1" vertex="1">
          <mxGeometry x="925" y="380" width="40" height="40" as="geometry" />
        </mxCell>
        <mxCell id="Qy2okHtq2op7KmMTomPE-65" value="" style="shape=flexArrow;endArrow=classic;html=1;rounded=0;entryX=0;entryY=0.5;entryDx=0;entryDy=0;" parent="1" target="Qy2okHtq2op7KmMTomPE-48" edge="1">
          <mxGeometry width="50" height="50" relative="1" as="geometry">
            <mxPoint x="660" y="200" as="sourcePoint" />
            <mxPoint x="610" y="410" as="targetPoint" />
          </mxGeometry>
        </mxCell>
        <mxCell id="Qy2okHtq2op7KmMTomPE-66" value="" style="endArrow=classic;html=1;rounded=0;entryX=0;entryY=0.5;entryDx=0;entryDy=0;" parent="1" target="Qy2okHtq2op7KmMTomPE-63" edge="1">
          <mxGeometry width="50" height="50" relative="1" as="geometry">
            <mxPoint x="380" y="170" as="sourcePoint" />
            <mxPoint x="610" y="350" as="targetPoint" />
            <Array as="points">
              <mxPoint x="380" y="60" />
            </Array>
          </mxGeometry>
        </mxCell>
        <mxCell id="Qy2okHtq2op7KmMTomPE-67" value="" style="endArrow=classic;html=1;rounded=0;entryX=1;entryY=0.5;entryDx=0;entryDy=0;exitX=1;exitY=0.5;exitDx=0;exitDy=0;" parent="1" source="Qy2okHtq2op7KmMTomPE-63" target="Qy2okHtq2op7KmMTomPE-64" edge="1">
          <mxGeometry width="50" height="50" relative="1" as="geometry">
            <mxPoint x="560" y="400" as="sourcePoint" />
            <mxPoint x="610" y="350" as="targetPoint" />
            <Array as="points">
              <mxPoint x="1000" y="60" />
              <mxPoint x="1000" y="400" />
            </Array>
          </mxGeometry>
        </mxCell>
        <mxCell id="Qy2okHtq2op7KmMTomPE-68" value="" style="endArrow=classic;html=1;rounded=0;exitX=0.5;exitY=1;exitDx=0;exitDy=0;entryX=0;entryY=1;entryDx=0;entryDy=0;" parent="1" source="Qy2okHtq2op7KmMTomPE-64" target="Qy2okHtq2op7KmMTomPE-42" edge="1">
          <mxGeometry width="50" height="50" relative="1" as="geometry">
            <mxPoint x="560" y="400" as="sourcePoint" />
            <mxPoint x="160" y="760" as="targetPoint" />
            <Array as="points">
              <mxPoint x="945" y="750" />
            </Array>
          </mxGeometry>
        </mxCell>
        <mxCell id="Qm244zd7coYMfKhT3Cjv-1" value="" style="endArrow=classic;html=1;rounded=0;entryX=0;entryY=0.5;entryDx=0;entryDy=0;" edge="1" parent="1" target="Qy2okHtq2op7KmMTomPE-26">
          <mxGeometry width="50" height="50" relative="1" as="geometry">
            <mxPoint x="660" y="510" as="sourcePoint" />
            <mxPoint x="610" y="600" as="targetPoint" />
            <Array as="points">
              <mxPoint x="700" y="510" />
              <mxPoint x="700" y="340" />
              <mxPoint x="420" y="340" />
              <mxPoint x="420" y="290" />
            </Array>
          </mxGeometry>
        </mxCell>
      </root>
    </mxGraphModel>
  </diagram>
</mxfile>
